<svg xmlns="http://www.w3.org/2000/svg" width="1920" height="1080" viewBox="0 0 1920 1080" role="img" aria-label="Switchgear schedule dependency chain">
  <rect width="1920" height="1080" fill="#0b1f36"/>
  <text x="110" y="120" fill="#bae6fd" font-family="Arial" font-size="30" font-weight="700" letter-spacing="5">SYNTHETIC SCENARIO-BASED RISK ANALYSIS</text>
  <text x="110" y="190" fill="white" font-family="Arial" font-size="58" font-weight="700">Switchgear critical delay chain</text>
  <text x="110" y="245" fill="#cbd5e1" font-family="Arial" font-size="28">T-140 delivery risk lead time: 35 days · Not a trained historical prediction</text>
  <g font-family="Arial" text-anchor="middle"><g fill="#ffffff"><rect x="110" y="430" width="250" height="150" rx="18"/><rect x="430" y="430" width="250" height="150" rx="18"/><rect x="750" y="430" width="250" height="150" rx="18" fill="#fee2e2"/><rect x="1070" y="430" width="250" height="150" rx="18"/><rect x="1390" y="430" width="250" height="150" rx="18"/><rect x="1660" y="430" width="150" height="150" rx="18"/></g><g fill="#172235" font-size="22" font-weight="700"><text x="235" y="480">T-120</text><text x="555" y="480">T-130</text><text x="875" y="480">T-140</text><text x="1195" y="480">T-160</text><text x="1515" y="480">T-170</text><text x="1735" y="480">T-180</text></g><g fill="#475569" font-size="16"><text x="235" y="525">Fabrication</text><text x="555" y="525">Factory test</text><text x="875" y="525">Delivery</text><text x="1195" y="525">Install</text><text x="1515" y="525">Energize</text><text x="1735" y="525">IST</text></g></g>
  <g stroke="#7dd3fc" stroke-width="8"><line x1="360" y1="505" x2="430" y2="505"/><line x1="680" y1="505" x2="750" y2="505"/><line x1="1000" y1="505" x2="1070" y2="505"/><line x1="1320" y1="505" x2="1390" y2="505"/><line x1="1640" y1="505" x2="1660" y2="505"/></g>
  <text x="110" y="800" fill="#cbd5e1" font-family="Arial" font-size="30">Root cause in synthetic schedule: switchgear fabrication material shortage propagates to delivery, installation, energization, and integrated systems testing.</text>
  <text x="110" y="930" fill="#94a3b8" font-family="Arial" font-size="24">Static backup visual rendered from the evaluation result; not a live dashboard screenshot.</text>
</svg>
